<?xml version="1.0" encoding="utf-8"?>
<!-- Generator: Adobe Illustrator 23.0.5, SVG Export Plug-In . SVG Version: 6.00 Build 0)  -->
<svg version="1.1" id="Layer_6" xmlns="http://www.w3.org/2000/svg" xmlns:xlink="http://www.w3.org/1999/xlink" x="0px" y="0px"
	 viewBox="0 0 1697.4 641.1" style="enable-background:new 0 0 1697.4 641.1;" xml:space="preserve">
<style type="text/css">
	.st0{opacity:0.2;clip-path:url(#SVGID_2_);enable-background:new    ;}
	.st1{opacity:0.2;clip-path:url(#SVGID_4_);enable-background:new    ;}
	.st2{opacity:0.2;clip-path:url(#SVGID_6_);fill:#FFFFFF;enable-background:new    ;}
	.st3{opacity:0.2;clip-path:url(#SVGID_8_);fill:#FFFFFF;enable-background:new    ;}
	.st4{opacity:0.2;clip-path:url(#SVGID_10_);enable-background:new    ;}
	.st5{opacity:0.2;clip-path:url(#SVGID_12_);enable-background:new    ;}
	.st6{opacity:0.2;clip-path:url(#SVGID_14_);enable-background:new    ;}
	.st7{opacity:0.2;clip-path:url(#SVGID_16_);enable-background:new    ;}
	.st8{opacity:0.2;clip-path:url(#SVGID_18_);enable-background:new    ;}
	.st9{opacity:0.2;clip-path:url(#SVGID_20_);enable-background:new    ;}
	.st10{opacity:0.2;clip-path:url(#SVGID_22_);fill:#FFFFFF;enable-background:new    ;}
</style>
<g>
	<g>
		<defs>
			<path id="SVGID_1_" d="M1403.2,196.5c16.5,9.6,37.8,4,47.4-12.5c9.6-16.5,4-37.8-12.5-47.4c-16.5-9.6-37.8-4-47.4,12.5
				C1381.1,165.6,1386.7,186.9,1403.2,196.5 M1336.9,310.5c-79.5-46.2-106.4-148.3-60.2-227.8S1425-23.6,1504.5,22.6
				s106.4,148.3,60.2,227.8C1518.4,329.9,1416.4,356.8,1336.9,310.5"/>
		</defs>
		<use xlink:href="#SVGID_1_"  style="overflow:visible;"/>
		<clipPath id="SVGID_2_">
			<use xlink:href="#SVGID_1_"  style="overflow:visible;"/>
		</clipPath>
		
			<rect x="1249.2" y="-5" transform="matrix(0.7071 -0.7071 0.7071 0.7071 298.3416 1053.3802)" class="st0" width="343.1" height="343.1"/>
	</g>
</g>
<g>
	<g>
		<defs>
			<path id="SVGID_3_" d="M894.1,317.4c16.5,9.6,37.8,4,47.4-12.5c9.6-16.5,4-37.8-12.5-47.4c-16.5-9.6-37.8-4-47.4,12.5
				C872,286.5,877.6,307.8,894.1,317.4 M827.8,431.4c-79.5-46.2-106.4-148.3-60.2-227.8c46.2-79.5,148.3-106.4,227.8-60.2
				s106.4,148.3,60.2,227.8C1009.2,450.8,907.3,477.7,827.8,431.4"/>
		</defs>
		<use xlink:href="#SVGID_3_"  style="overflow:visible;"/>
		<clipPath id="SVGID_4_">
			<use xlink:href="#SVGID_3_"  style="overflow:visible;"/>
		</clipPath>
		
			<rect x="740" y="115.9" transform="matrix(0.7071 -0.7071 0.7071 0.7071 63.7268 728.7732)" class="st1" width="343.1" height="343.1"/>
	</g>
</g>
<g>
	<g>
		<defs>
			<path id="SVGID_5_" d="M1555.5,514.2c39.7,23.1,90.8,9.6,113.8-30.1c23.1-39.7,9.6-90.8-30.1-113.8
				c-39.7-23.1-90.8-9.6-113.8,30.1C1502.4,440,1515.9,491.1,1555.5,514.2 M1547.1,528.6c-47.7-27.8-63.9-88.9-36.1-136.6
				s88.9-63.9,136.6-36.1c47.7,27.8,63.9,88.9,36.1,136.6C1656,540.2,1594.8,556.3,1547.1,528.6"/>
		</defs>
		<clipPath id="SVGID_6_">
			<use xlink:href="#SVGID_5_"  style="overflow:visible;"/>
		</clipPath>
		
			<rect x="1492.5" y="337.3" transform="matrix(0.7071 -0.7071 0.7071 0.7071 155.1921 1259.1012)" class="st2" width="209.9" height="209.9"/>
	</g>
</g>
<g>
	<g>
		<defs>
			<path id="SVGID_7_" d="M1573.5,488.1c24.8,14.5,56.8,6,71.3-18.8c14.5-24.8,6-56.8-18.8-71.3s-56.8-6-71.3,18.8
				C1540.2,441.6,1548.7,473.6,1573.5,488.1 M1565.1,502.5c-32.9-19.2-44-61.2-24.8-94.1c19.2-32.9,61.2-44,94.1-24.8
				c32.9,19.2,44,61.2,24.8,94.1C1640.1,510.4,1598,521.6,1565.1,502.5"/>
		</defs>
		<clipPath id="SVGID_8_">
			<use xlink:href="#SVGID_7_"  style="overflow:visible;"/>
		</clipPath>
		
			<rect x="1525.9" y="369.1" transform="matrix(0.7071 -0.7071 0.7071 0.7071 155.3105 1260.9227)" class="st3" width="147.7" height="147.7"/>
	</g>
</g>
<g>
	<g>
		<defs>
			<path id="SVGID_9_" d="M100.7,550.3c-11-6.4-14.9-20.5-8.6-31.5c6.3-11,20.5-14.9,31.5-8.6c11,6.4,14.9,20.5,8.6,31.5
				C125.9,552.8,111.7,556.7,100.7,550.3 M57.1,626.5c53.1,30.4,120.9,12.1,151.3-41.1c30.4-53.1,12.1-120.9-41.1-151.3
				C114.2,403.6,46.4,422,16,475.2C-14.5,528.3,3.9,596,57.1,626.5"/>
		</defs>
		<use xlink:href="#SVGID_9_"  style="overflow:visible;"/>
		<clipPath id="SVGID_10_">
			<use xlink:href="#SVGID_9_"  style="overflow:visible;"/>
		</clipPath>
		
			<rect x="-3.7" y="414.4" transform="matrix(0.5 -0.866 0.866 0.5 -403.1276 362.3033)" class="st4" width="231.8" height="231.8"/>
	</g>
</g>
<g>
	<g>
		<defs>
			<path id="SVGID_11_" d="M733.5,505.2c-11-6.4-14.9-20.5-8.6-31.5c6.4-11,20.5-14.9,31.5-8.6c11,6.4,14.9,20.5,8.6,31.5
				C758.6,507.7,744.5,511.5,733.5,505.2 M689.9,581.4c53.1,30.4,120.9,12.1,151.3-41.1c30.4-53.1,12-120.9-41.1-151.3
				c-53.1-30.4-120.9-12-151.3,41.1C618.3,483.1,636.7,550.9,689.9,581.4"/>
		</defs>
		<use xlink:href="#SVGID_11_"  style="overflow:visible;"/>
		<clipPath id="SVGID_12_">
			<use xlink:href="#SVGID_11_"  style="overflow:visible;"/>
		</clipPath>
		
			<rect x="629.1" y="369.2" transform="matrix(0.5 -0.866 0.866 0.5 -47.6377 887.7311)" class="st5" width="231.8" height="231.8"/>
	</g>
</g>
<g>
	<g>
		<defs>
			<path id="SVGID_13_" d="M151.2,370.6c-26.5-15.2-35.7-49.1-20.5-75.6c15.2-26.5,49.1-35.7,75.6-20.5
				c26.5,15.2,35.7,49.1,20.5,75.6C211.7,376.5,177.8,385.7,151.2,370.6 M145.8,380.1c31.8,18.3,72.5,7.2,90.8-24.7
				c18.3-31.8,7.2-72.5-24.7-90.8c-31.8-18.3-72.5-7.2-90.8,24.7S113.8,361.9,145.8,380.1"/>
		</defs>
		<use xlink:href="#SVGID_13_"  style="overflow:visible;"/>
		<clipPath id="SVGID_14_">
			<use xlink:href="#SVGID_13_"  style="overflow:visible;"/>
		</clipPath>
		
			<rect x="107.2" y="250.9" transform="matrix(0.5 -0.866 0.866 0.5 -189.8781 316.0601)" class="st6" width="143.1" height="143.1"/>
	</g>
</g>
<g>
	<g>
		<defs>
			<path id="SVGID_15_" d="M162.8,352.2c-16.6-9.5-22.4-30.7-12.9-47.3c9.5-16.6,30.7-22.4,47.4-12.8c16.6,9.5,22.4,30.7,12.9,47.3
				C200.6,355.9,179.4,361.6,162.8,352.2 M157.3,361.8c22,12.6,49.9,4.9,62.4-16.9c12.6-22,4.9-49.9-16.9-62.4
				c-22-12.6-49.9-4.9-62.4,16.9C127.8,321.3,135.4,349.3,157.3,361.8"/>
		</defs>
		<use xlink:href="#SVGID_15_"  style="overflow:visible;"/>
		<clipPath id="SVGID_16_">
			<use xlink:href="#SVGID_15_"  style="overflow:visible;"/>
		</clipPath>
		
			<rect x="129.3" y="271.3" transform="matrix(0.5 -0.866 0.866 0.5 -188.9236 316.9495)" class="st7" width="101.5" height="101.5"/>
	</g>
</g>
<g>
	<g>
		<defs>
			<path id="SVGID_17_" d="M740.3,349.5c-26.5-15.2-35.7-49.1-20.5-75.6c15.2-26.5,49.1-35.7,75.6-20.5
				c26.5,15.2,35.7,49.1,20.5,75.6C800.8,355.4,766.9,364.6,740.3,349.5 M734.9,359c31.8,18.3,72.5,7.2,90.8-24.7
				c18.3-31.8,7.2-72.5-24.7-90.8c-31.8-18.3-72.5-7.2-90.8,24.7S702.9,340.8,734.9,359"/>
		</defs>
		<use xlink:href="#SVGID_17_"  style="overflow:visible;"/>
		<clipPath id="SVGID_18_">
			<use xlink:href="#SVGID_17_"  style="overflow:visible;"/>
		</clipPath>
		
			<rect x="696.4" y="229.8" transform="matrix(0.5 -0.866 0.866 0.5 122.9655 815.6979)" class="st8" width="143.1" height="143.1"/>
	</g>
</g>
<g>
	<g>
		<defs>
			<path id="SVGID_19_" d="M752,331.1c-16.6-9.5-22.4-30.7-12.9-47.3c9.5-16.6,30.7-22.4,47.4-12.8c16.6,9.5,22.4,30.7,12.9,47.3
				C789.8,334.8,768.6,340.5,752,331.1 M746.4,340.7c22,12.6,49.9,4.9,62.4-16.9c12.6-22,4.9-49.9-16.9-62.4
				c-22-12.6-49.9-4.9-62.4,16.9C716.9,300.2,724.5,328.2,746.4,340.7"/>
		</defs>
		<use xlink:href="#SVGID_19_"  style="overflow:visible;"/>
		<clipPath id="SVGID_20_">
			<use xlink:href="#SVGID_19_"  style="overflow:visible;"/>
		</clipPath>
		
			<rect x="718.4" y="250.2" transform="matrix(0.5 -0.866 0.866 0.5 123.9199 816.5873)" class="st9" width="101.5" height="101.5"/>
	</g>
</g>
<g>
	<g>
		<defs>
			<path id="SVGID_21_" d="M5.8,153c12-21,38.8-28.3,59.8-16.3s28.4,38.9,16.3,59.8c-12,21-38.8,28.3-59.8,16.3
				C1,200.8-6.2,174,5.8,153"/>
		</defs>
		<clipPath id="SVGID_22_">
			<use xlink:href="#SVGID_21_"  style="overflow:visible;"/>
		</clipPath>
		<rect x="-5" y="125.9" transform="matrix(0.5 -0.866 0.866 0.5 -129.4147 125.401)" class="st10" width="97.8" height="97.8"/>
	</g>
</g>
</svg>
